<?xml version="1.0" encoding="UTF-8"?>
<svg xmlns="http://www.w3.org/2000/svg" xmlns:xlink="http://www.w3.org/1999/xlink" width="500" zoomAndPan="magnify" viewBox="0 0 375 374.999991" height="500" preserveAspectRatio="xMidYMid meet" version="1.0">
  <defs>
    <clipPath id="147d38c088">
      <path d="M 66.847656 51.167969 L 276 51.167969 L 276 208 L 66.847656 208 Z M 66.847656 51.167969 " clip-rule="nonzero"></path>
    </clipPath>
    <clipPath id="266a3447fe">
      <path d="M 179 97 L 315.097656 97 L 315.097656 278 L 179 278 Z M 179 97 " clip-rule="nonzero"></path>
    </clipPath>
    <clipPath id="78a8792276">
      <path d="M 68 207 L 180 207 L 180 331.667969 L 68 331.667969 Z M 68 207 " clip-rule="nonzero"></path>
    </clipPath>
    <clipPath id="5ec5c6c3da">
      <path d="M 126.328125 154 L 191 154 L 191 211.871094 L 126.328125 211.871094 Z M 126.328125 154 " clip-rule="nonzero"></path>
    </clipPath>
    <clipPath id="ba77115eb2">
      <path d="M 190 124.871094 L 255.328125 124.871094 L 255.328125 182 L 190 182 Z M 190 124.871094 " clip-rule="nonzero"></path>
    </clipPath>
  </defs>
  <g clip-path="url(#147d38c088)">
    <path fill="#feb100" d="M 119.957031 78.476562 L 129.644531 70.464844 C 129.738281 70.386719 129.839844 70.3125 129.941406 70.242188 C 130.410156 69.9375 130.804688 69.785156 131.359375 69.710938 C 132.058594 69.648438 132.570312 69.765625 133.203125 70.070312 L 137.78125 72.398438 C 139.054688 73.027344 140.097656 73.335938 141.519531 73.457031 C 142.941406 73.53125 144.015625 73.375 145.367188 72.933594 C 146.703125 72.453125 147.648438 71.917969 148.722656 70.980469 C 149.765625 70.015625 150.398438 69.132812 151.015625 67.855469 L 154.871094 59.59375 C 155.101562 59.113281 155.328125 58.78125 155.730469 58.429688 C 156.144531 58.089844 156.507812 57.921875 157.019531 57.773438 C 157.539062 57.640625 157.945312 57.597656 158.476562 57.679688 C 159.003906 57.777344 159.375 57.949219 159.820312 58.25 C 170.117188 65.425781 180.425781 72.578125 190.757812 79.699219 C 192.640625 80.941406 194.308594 81.433594 196.5625 81.363281 C 198.796875 81.1875 200.394531 80.523438 202.121094 79.09375 L 203.574219 77.816406 C 203.472656 78.367188 203.378906 78.871094 203.304688 79.25 C 203.125 80.277344 203.140625 81.074219 203.386719 82.089844 C 203.671875 83.089844 204.046875 83.789062 204.707031 84.589844 C 205.390625 85.371094 206.015625 85.851562 206.957031 86.289062 C 207.90625 86.691406 208.675781 86.832031 209.707031 86.820312 C 209.734375 86.824219 210.085938 86.808594 210.140625 86.804688 C 210.738281 86.789062 211.191406 86.839844 211.761719 87.039062 C 212.332031 87.253906 212.714844 87.511719 213.164062 87.921875 C 213.605469 88.347656 213.894531 88.714844 214.15625 89.273438 C 214.40625 89.84375 214.492188 90.304688 214.515625 90.925781 L 214.546875 92.65625 C 214.640625 94.949219 215.28125 96.613281 216.78125 98.347656 C 218.351562 99.984375 219.921875 100.777344 222.167969 101.085938 C 230.789062 101.980469 239.414062 102.847656 248.042969 103.675781 C 249.648438 103.808594 250.863281 103.609375 252.316406 102.910156 C 253.722656 102.164062 254.597656 101.324219 255.4375 99.976562 C 256.1875 98.660156 256.507812 97.546875 256.519531 96.03125 C 256.515625 95.519531 256.582031 95.136719 256.792969 94.664062 C 257.027344 94.195312 257.285156 93.894531 257.699219 93.566406 C 258.128906 93.25 258.496094 93.070312 259.019531 92.960938 C 259.5625 92.871094 259.976562 92.90625 260.503906 93.054688 C 260.515625 93.054688 274.398438 97.214844 275.878906 97.644531 C 270.917969 95.640625 265.945312 93.675781 260.964844 91.730469 C 260.210938 91.453125 259.609375 91.363281 258.808594 91.433594 C 258 91.539062 257.425781 91.757812 256.738281 92.191406 C 256.054688 92.65625 255.617188 93.105469 255.195312 93.816406 C 254.796875 94.550781 254.632812 95.164062 254.582031 96 C 254.496094 97.101562 254.203125 97.890625 253.597656 98.8125 C 252.949219 99.71875 252.308594 100.273438 251.289062 100.730469 C 250.277344 101.136719 249.449219 101.214844 248.371094 101.0625 C 239.804688 99.726562 231.238281 98.433594 222.664062 97.160156 C 221.488281 96.945312 220.683594 96.5 219.898438 95.601562 C 219.175781 94.683594 218.890625 93.832031 218.890625 92.660156 C 218.882812 92.636719 218.921875 91.097656 218.925781 90.929688 C 218.929688 89.667969 218.769531 88.714844 218.3125 87.53125 C 217.820312 86.355469 217.273438 85.558594 216.390625 84.640625 C 215.476562 83.742188 214.679688 83.1875 213.5 82.679688 C 212.304688 82.207031 211.339844 82.035156 210.050781 82.023438 L 209.621094 82.027344 C 209.375 82.019531 209.191406 81.984375 208.972656 81.875 C 208.761719 81.761719 208.628906 81.632812 208.480469 81.449219 C 208.335938 81.257812 208.253906 81.101562 208.203125 80.871094 C 208.160156 80.644531 208.175781 80.464844 208.226562 80.242188 L 209.34375 75.097656 C 209.503906 74.230469 209.433594 73.554688 209.097656 72.738281 C 208.71875 71.9375 208.261719 71.425781 207.511719 70.957031 C 206.742188 70.519531 206.070312 70.363281 205.1875 70.417969 C 204.300781 70.511719 203.667969 70.777344 202.972656 71.335938 L 198.601562 74.972656 C 197.878906 75.539062 197.226562 75.800781 196.308594 75.84375 C 195.398438 75.84375 194.746094 75.621094 194.003906 75.101562 C 183.832031 67.75 173.644531 60.429688 163.433594 53.132812 C 162.171875 52.257812 161.101562 51.785156 159.59375 51.484375 C 158.074219 51.230469 156.902344 51.289062 155.40625 51.65625 C 153.921875 52.066406 152.867188 52.585938 151.664062 53.546875 C 150.492188 54.550781 149.78125 55.492188 149.101562 56.875 L 145.1875 65.113281 C 144.976562 65.546875 144.769531 65.84375 144.414062 66.171875 C 144.050781 66.484375 143.726562 66.648438 143.273438 66.808594 C 142.816406 66.957031 142.457031 67.019531 141.980469 66.992188 C 141.503906 66.949219 141.160156 66.832031 140.730469 66.617188 L 136.15625 64.277344 C 134.285156 63.367188 132.722656 63.0625 130.644531 63.246094 C 128.960938 63.460938 127.742188 63.914062 126.316406 64.835938 C 126.027344 65.03125 125.761719 65.230469 125.492188 65.453125 L 115.820312 73.480469 C 115.140625 74.019531 114.660156 74.203125 113.796875 74.242188 L 107.167969 74.378906 C 105.246094 74.453125 103.832031 74.855469 102.179688 75.847656 C 100.574219 76.90625 99.597656 78.003906 98.699219 79.703125 C 97.867188 81.429688 97.558594 82.863281 97.660156 84.78125 C 97.839844 86.691406 98.351562 88.0625 99.425781 89.648438 L 102.160156 93.503906 C 102.609375 94.164062 102.761719 94.609375 102.792969 95.40625 C 102.882812 100.371094 102.972656 105.339844 103.066406 110.308594 C 103.074219 110.976562 102.980469 111.476562 102.675781 112.074219 C 102.347656 112.667969 101.980469 113.023438 101.417969 113.394531 C 96.839844 116.242188 92.269531 119.097656 87.699219 121.960938 C 86.429688 122.773438 85.597656 123.566406 84.765625 124.824219 C 83.976562 126.105469 83.609375 127.183594 83.402344 128.671875 C 83.242188 130.160156 83.339844 131.292969 83.792969 132.722656 C 84.292969 134.128906 84.898438 135.082031 85.917969 136.167969 L 87.417969 137.699219 C 88.027344 138.335938 88.355469 138.921875 88.535156 139.789062 C 88.675781 140.679688 88.566406 141.351562 88.210938 142.175781 C 86.582031 145.667969 84.953125 149.160156 83.332031 152.652344 C 82.90625 153.53125 82.425781 154.09375 81.59375 154.605469 C 80.722656 155.089844 79.976562 155.230469 78.988281 155.160156 L 74.648438 154.730469 C 73.332031 154.621094 72.335938 154.808594 71.164062 155.421875 C 70.03125 156.085938 69.347656 156.824219 68.746094 157.988281 C 68.207031 159.167969 68.046875 160.152344 68.222656 161.4375 C 68.457031 162.703125 68.910156 163.578125 69.78125 164.523438 L 72.007812 166.773438 C 72.464844 167.242188 72.75 167.652344 73.023438 168.246094 C 73.273438 168.832031 73.386719 169.308594 73.433594 169.941406 C 73.460938 170.585938 73.398438 171.078125 73.214844 171.695312 C 73.003906 172.339844 72.753906 172.796875 72.335938 173.332031 L 68.628906 177.902344 C 67.480469 179.367188 66.957031 180.703125 66.859375 182.566406 C 66.847656 184.398438 67.277344 185.742188 68.3125 187.25 C 70.425781 190.140625 72.550781 193.03125 74.679688 195.910156 C 75.582031 197.195312 75.925781 198.355469 75.851562 199.921875 C 75.691406 201.539062 75.152344 202.667969 74.03125 203.839844 C 74 203.910156 70.546875 207.308594 70.15625 207.695312 C 71.570312 206.542969 72.980469 205.390625 74.382812 204.226562 C 75.746094 203.03125 76.441406 201.816406 76.777344 200.035156 C 77.023438 198.1875 76.710938 196.777344 75.761719 195.175781 C 75.734375 195.039062 70.554688 186.886719 70.03125 186.078125 C 69.367188 184.964844 69.117188 183.996094 69.210938 182.699219 C 69.363281 181.4375 69.773438 180.558594 70.609375 179.609375 L 74.574219 175.261719 C 75.289062 174.445312 75.726562 173.734375 76.125 172.722656 C 76.484375 171.730469 76.628906 170.925781 76.644531 169.871094 C 76.628906 168.808594 76.476562 167.996094 76.113281 167 C 75.703125 165.964844 75.253906 165.242188 74.523438 164.40625 L 72.410156 162.050781 C 72.113281 161.691406 71.957031 161.371094 71.902344 160.90625 C 71.867188 160.453125 71.949219 160.113281 72.164062 159.710938 C 72.386719 159.332031 72.621094 159.089844 73.019531 158.890625 C 73.414062 158.710938 73.738281 158.679688 74.164062 158.738281 L 78.484375 159.347656 C 80.4375 159.566406 81.925781 159.324219 83.6875 158.449219 C 85.417969 157.484375 86.46875 156.382812 87.398438 154.632812 C 89.148438 151.203125 90.894531 147.769531 92.636719 144.332031 C 93.496094 142.523438 93.761719 141.007812 93.519531 139.015625 C 93.1875 137.027344 92.5 135.640625 91.15625 134.136719 L 89.703125 132.5625 C 89.28125 132.089844 89.027344 131.683594 88.835938 131.078125 C 88.667969 130.472656 88.652344 129.996094 88.738281 129.378906 C 88.839844 128.765625 88.996094 128.320312 89.339844 127.800781 C 89.695312 127.300781 90.046875 127 90.574219 126.679688 C 95.210938 123.929688 99.84375 121.175781 104.476562 118.414062 C 105.996094 117.460938 106.957031 116.5 107.871094 114.953125 C 108.722656 113.367188 109.042969 112.039062 109.066406 110.242188 C 109.050781 105.273438 109.035156 100.304688 109.011719 95.335938 C 108.953125 93.183594 108.484375 91.703125 107.292969 89.914062 L 104.597656 86.023438 C 104.234375 85.46875 104.046875 85 103.996094 84.335938 C 103.96875 83.675781 104.09375 83.191406 104.386719 82.597656 C 104.699219 82.019531 105.023438 81.636719 105.578125 81.28125 C 106.144531 80.945312 106.628906 80.832031 107.285156 80.808594 L 113.914062 80.707031 C 116.363281 80.613281 118.035156 79.996094 119.957031 78.476562 Z M 119.957031 78.476562 " fill-opacity="1" fill-rule="evenodd"></path>
  </g>
  <g clip-path="url(#266a3447fe)">
    <path fill="#2454b5" d="M 297.101562 157.933594 C 296.34375 163.742188 295.597656 169.550781 294.863281 175.363281 C 294.742188 176.15625 294.539062 176.582031 294.007812 177.183594 C 289.539062 182.070312 285.078125 186.964844 280.628906 191.871094 C 273.226562 200.035156 265.886719 208.25 258.519531 216.445312 C 258.082031 216.925781 257.78125 217.136719 257.175781 217.378906 C 239.800781 223.867188 222.496094 230.453125 205.226562 237.222656 C 203.949219 237.734375 203.140625 238.269531 202.164062 239.238281 C 198.527344 243.011719 194.902344 246.796875 191.292969 250.597656 C 190.328125 251.632812 189.769531 252.550781 189.347656 253.902344 C 188.984375 255.25 188.957031 256.308594 189.210938 257.679688 L 189.734375 260.191406 C 189.824219 260.609375 189.839844 260.933594 189.757812 261.351562 C 189.664062 261.78125 189.519531 262.078125 189.257812 262.433594 C 188.984375 262.789062 188.734375 263.019531 188.34375 263.242188 C 187.933594 263.460938 187.597656 263.546875 187.136719 263.582031 C 186.003906 263.652344 185.175781 263.882812 184.152344 264.375 C 182.949219 265.003906 182.160156 265.664062 181.378906 266.78125 C 180.660156 267.898438 180.347656 268.855469 180.222656 270.175781 C 180.039062 272.738281 179.867188 275.296875 179.710938 277.859375 C 180.207031 275.359375 180.738281 272.808594 181.164062 270.296875 C 181.390625 269.203125 181.730469 268.429688 182.433594 267.5625 C 183.148438 266.746094 183.824219 266.289062 184.828125 265.878906 C 185.636719 265.582031 186.285156 265.460938 187.148438 265.492188 C 187.925781 265.503906 188.503906 265.40625 189.222656 265.113281 C 189.941406 264.792969 190.421875 264.433594 190.957031 263.859375 C 191.480469 263.257812 191.789062 262.734375 192.035156 261.972656 C 192.261719 261.195312 192.300781 260.582031 192.203125 259.777344 L 191.878906 257.230469 C 191.785156 256.335938 191.847656 255.660156 192.152344 254.8125 C 192.480469 253.996094 192.871094 253.464844 193.515625 252.863281 C 197.382812 249.328125 201.238281 245.773438 205.078125 242.207031 C 205.476562 241.832031 206.164062 241.410156 206.695312 241.277344 C 224.289062 235.402344 241.792969 229.359375 259.289062 223.199219 C 260.917969 222.59375 261.953125 221.90625 263.148438 220.640625 C 270.613281 212.535156 278.046875 204.402344 285.449219 196.242188 C 289.898438 191.335938 294.324219 186.410156 298.761719 181.492188 C 300.222656 179.804688 300.886719 178.335938 301.191406 176.125 C 301.855469 170.304688 302.511719 164.484375 303.152344 158.660156 C 303.210938 158.167969 303.320312 157.808594 303.546875 157.367188 C 303.78125 156.945312 304.019531 156.65625 304.382812 156.339844 C 304.757812 156.03125 305.089844 155.847656 305.546875 155.6875 C 306.027344 155.53125 306.414062 155.484375 306.921875 155.511719 L 307.664062 155.574219 C 308.761719 155.648438 309.601562 155.546875 310.640625 155.175781 C 311.667969 154.769531 312.363281 154.300781 313.140625 153.519531 C 313.886719 152.714844 314.332031 152.007812 314.695312 150.972656 C 315.023438 149.925781 315.097656 149.097656 314.980469 148.011719 C 314.585938 144.984375 314.191406 141.960938 313.789062 138.933594 C 313.539062 137.203125 313.050781 135.957031 312.015625 134.539062 C 310.933594 133.175781 309.871094 132.378906 308.277344 131.679688 L 307.792969 131.480469 C 306.902344 131.097656 306.332031 130.632812 305.8125 129.816406 C 305.324219 128.964844 305.175781 128.226562 305.257812 127.246094 C 305.402344 125.964844 305.265625 124.988281 304.742188 123.808594 C 304.175781 122.660156 303.523438 121.933594 302.460938 121.222656 L 298.453125 118.726562 C 299.308594 118.648438 300.066406 118.390625 300.898438 117.898438 C 302.027344 117.15625 302.679688 116.347656 303.195312 115.097656 C 303.636719 113.84375 303.695312 112.820312 303.351562 111.535156 C 302.953125 110.285156 302.367188 109.460938 301.332031 108.660156 C 301.324219 108.644531 300.257812 107.875 300.152344 107.804688 C 298.699219 106.785156 297.417969 106.324219 295.644531 106.25 C 293.902344 106.253906 292.628906 106.644531 291.164062 107.578125 C 291.085938 107.601562 289.535156 108.691406 289.320312 108.835938 C 288.984375 109.066406 288.699219 109.191406 288.300781 109.289062 C 287.90625 109.371094 287.589844 109.378906 287.195312 109.320312 C 286.789062 109.25 286.488281 109.136719 286.128906 108.929688 C 285.757812 108.699219 285.507812 108.472656 285.246094 108.121094 C 285.214844 108.101562 279.972656 100.855469 279.449219 100.117188 C 278.574219 98.878906 277.335938 98.046875 275.878906 97.644531 C 277.34375 98.300781 278.167969 99.039062 278.984375 100.421875 C 280.597656 103.292969 282.226562 106.152344 283.871094 109.007812 C 284.226562 109.589844 284.578125 109.984375 285.117188 110.398438 C 285.660156 110.792969 286.125 111.015625 286.769531 111.195312 C 287.429688 111.359375 287.949219 111.394531 288.628906 111.324219 C 289.335938 111.226562 289.855469 111.050781 290.480469 110.703125 L 292.421875 109.609375 C 293.457031 109.0625 294.332031 108.859375 295.5 108.957031 C 296.632812 109.101562 297.417969 109.460938 298.300781 110.179688 C 298.34375 110.199219 299.300781 111.015625 299.414062 111.117188 C 299.820312 111.488281 300.042969 111.84375 300.164062 112.382812 C 300.257812 112.90625 300.199219 113.304688 299.984375 113.789062 C 299.753906 114.242188 299.492188 114.53125 299.042969 114.773438 C 298.601562 114.988281 298.234375 115.035156 297.746094 114.964844 C 297.683594 114.976562 296.382812 114.765625 296.195312 114.742188 C 295.402344 114.664062 294.796875 114.789062 294.105469 115.183594 C 293.429688 115.613281 293.035156 116.097656 292.734375 116.839844 C 292.46875 117.601562 292.449219 118.230469 292.675781 119.007812 C 292.941406 119.777344 293.324219 120.28125 293.988281 120.753906 C 294.054688 120.855469 299.417969 124.566406 299.992188 124.957031 C 300.265625 125.167969 300.429688 125.363281 300.558594 125.683594 C 300.667969 125.996094 300.675781 126.246094 300.617188 126.570312 C 300.328125 128.675781 300.585938 130.292969 301.546875 132.191406 C 302.605469 134.066406 303.835938 135.1875 305.777344 136.121094 C 305.800781 136.144531 306.183594 136.304688 306.25 136.339844 C 306.929688 136.675781 307.378906 137.027344 307.824219 137.644531 C 308.234375 138.265625 308.402344 138.800781 308.480469 139.542969 L 309.371094 148.652344 C 309.378906 148.824219 309.371094 148.960938 309.304688 149.121094 C 309.238281 149.277344 309.152344 149.378906 309.03125 149.496094 C 308.910156 149.609375 308.804688 149.683594 308.644531 149.734375 C 308.492188 149.777344 308.363281 149.773438 308.203125 149.753906 L 307.464844 149.675781 C 306.121094 149.558594 305.089844 149.65625 303.792969 150.027344 C 302.550781 150.417969 301.65625 150.886719 300.625 151.683594 C 299.613281 152.507812 298.953125 153.277344 298.285156 154.402344 C 297.625 155.589844 297.292969 156.585938 297.101562 157.933594 Z M 297.101562 157.933594 " fill-opacity="1" fill-rule="evenodd"></path>
  </g>
  <g clip-path="url(#78a8792276)">
    <path fill="#f71656" d="M 109.328125 295.296875 C 107.851562 295.335938 106.75 295.570312 105.398438 296.167969 C 104.0625 296.808594 103.171875 297.5 102.183594 298.601562 L 99.816406 301.300781 C 99.703125 301.417969 99.601562 301.492188 99.445312 301.527344 C 99.285156 301.554688 99.167969 301.53125 99.019531 301.472656 C 98.875 301.40625 98.78125 301.335938 98.695312 301.199219 C 98.621094 301.0625 98.605469 300.945312 98.617188 300.789062 C 98.609375 300.753906 98.675781 299.992188 98.683594 299.886719 C 98.757812 298.660156 98.617188 297.738281 98.164062 296.59375 C 97.671875 295.46875 97.109375 294.722656 96.1875 293.910156 C 95.664062 293.445312 95.363281 293.011719 95.15625 292.335938 C 94.980469 291.652344 95.007812 291.121094 95.210938 290.441406 C 95.210938 290.367188 95.421875 289.917969 95.46875 289.828125 C 95.703125 289.417969 95.929688 289.140625 96.300781 288.84375 C 96.878906 288.414062 97.398438 288.238281 98.117188 288.179688 L 98.234375 288.171875 C 99.964844 288.039062 101.230469 287.664062 102.734375 286.789062 C 104.199219 285.859375 105.113281 284.90625 106.023438 283.433594 C 106.886719 281.929688 107.289062 280.671875 107.40625 278.941406 C 107.460938 277.210938 107.1875 275.917969 106.484375 274.339844 C 104.519531 270.152344 102.554688 265.96875 100.578125 261.789062 C 100.359375 261.308594 100.25 260.929688 100.226562 260.402344 C 100.222656 259.871094 100.316406 259.480469 100.515625 258.992188 C 100.734375 258.503906 100.949219 258.167969 101.335938 257.796875 C 101.734375 257.4375 102.09375 257.25 102.601562 257.074219 L 106.027344 255.960938 C 108.453125 255.117188 109.921875 253.949219 111.289062 251.777344 C 114.898438 245.652344 118.492188 239.523438 122.070312 233.382812 C 122.902344 231.917969 123.277344 230.6875 123.359375 229 C 123.375 227.332031 123.082031 226.09375 122.339844 224.601562 C 122.078125 224.109375 121.8125 223.769531 121.394531 223.402344 C 120.964844 223.050781 120.585938 222.847656 120.058594 222.675781 C 119.527344 222.515625 119.101562 222.46875 118.546875 222.511719 C 118 222.574219 117.589844 222.699219 117.101562 222.957031 L 116.898438 223.066406 C 116.867188 222.984375 116.835938 222.898438 116.792969 222.808594 C 116.574219 222.34375 116.339844 222.015625 115.972656 221.65625 C 115.59375 221.308594 115.257812 221.09375 114.78125 220.898438 C 114.28125 220.710938 113.875 220.640625 113.339844 220.648438 C 113.144531 220.660156 112.996094 220.640625 112.808594 220.585938 C 112.59375 220.511719 112.445312 220.421875 112.265625 220.277344 C 112.050781 220.089844 111.910156 219.921875 111.792969 219.660156 C 111.683594 219.402344 111.65625 219.199219 111.675781 218.917969 C 111.753906 218.125 111.644531 217.515625 111.277344 216.804688 C 110.882812 216.113281 110.4375 215.691406 109.726562 215.328125 C 109.007812 215 108.40625 214.910156 107.621094 215.027344 C 106.851562 215.175781 106.3125 215.460938 105.746094 216.003906 C 102.535156 219.355469 99.328125 222.710938 96.132812 226.074219 C 95.585938 226.644531 95.105469 226.996094 94.375 227.296875 C 93.621094 227.582031 93.023438 227.652344 92.21875 227.601562 C 91.402344 227.523438 90.808594 227.363281 90.089844 226.964844 C 89.371094 226.539062 88.921875 226.09375 88.441406 225.410156 C 86.679688 222.78125 84.914062 220.160156 83.140625 217.542969 C 82.433594 216.523438 81.765625 215.867188 80.703125 215.230469 C 79.636719 214.636719 78.75 214.386719 77.535156 214.28125 L 72.40625 213.96875 C 71.679688 213.914062 71.148438 213.738281 70.546875 213.328125 C 69.945312 212.871094 69.605469 212.410156 69.316406 211.710938 C 69.046875 210.976562 68.984375 210.386719 69.125 209.613281 C 69.300781 208.824219 69.601562 208.285156 70.15625 207.695312 C 69.515625 208.234375 69.140625 208.753906 68.859375 209.542969 C 68.601562 210.371094 68.601562 211.035156 68.808594 211.875 C 69.058594 212.734375 69.402344 213.320312 70.054688 213.933594 C 70.75 214.535156 71.390625 214.820312 72.292969 214.980469 L 77.371094 215.792969 C 78.296875 215.957031 78.96875 216.207031 79.75 216.738281 C 80.496094 217.289062 80.945312 217.816406 81.40625 218.617188 C 82.957031 221.371094 84.515625 224.121094 86.082031 226.867188 C 86.753906 227.988281 87.421875 228.726562 88.488281 229.476562 C 89.597656 230.199219 90.542969 230.542969 91.847656 230.75 C 93.175781 230.921875 94.1875 230.859375 95.472656 230.476562 C 96.757812 230.042969 97.628906 229.503906 98.628906 228.589844 C 101.527344 225.875 104.425781 223.15625 107.316406 220.433594 C 107.367188 220.6875 107.441406 220.949219 107.53125 221.222656 C 107.90625 222.238281 108.367188 222.925781 109.136719 223.679688 C 109.769531 224.261719 110.328125 224.625 111.121094 224.957031 C 111.542969 225.121094 111.921875 225.230469 112.316406 225.300781 C 112.367188 225.839844 112.507812 226.285156 112.789062 226.796875 C 113.152344 227.394531 113.527344 227.773438 114.121094 228.144531 C 114.726562 228.492188 115.242188 228.644531 115.941406 228.679688 C 116.644531 228.683594 117.167969 228.5625 117.796875 228.25 L 118.113281 228.089844 C 118.136719 228.304688 118.144531 228.53125 118.128906 228.78125 C 118.0625 229.5 117.875 230.007812 117.5 230.617188 C 113.71875 236.636719 109.960938 242.667969 106.210938 248.707031 C 105.660156 249.53125 105.167969 249.898438 104.222656 250.203125 C 104.171875 250.242188 101.121094 251.140625 100.773438 251.246094 C 99.359375 251.703125 98.367188 252.242188 97.234375 253.207031 C 96.132812 254.210938 95.476562 255.136719 94.847656 256.484375 C 94.253906 257.855469 94 258.960938 93.984375 260.457031 C 94.011719 261.953125 94.277344 263.0625 94.878906 264.429688 C 96.796875 268.636719 98.71875 272.84375 100.648438 277.046875 C 100.882812 277.585938 100.984375 278.015625 100.960938 278.605469 C 100.914062 279.191406 100.761719 279.605469 100.46875 280.109375 C 100.15625 280.605469 99.863281 280.929688 99.367188 281.242188 C 98.859375 281.535156 98.433594 281.640625 97.851562 281.683594 L 97.734375 281.691406 C 95.589844 281.863281 94.039062 282.421875 92.308594 283.707031 C 91.175781 284.613281 90.460938 285.460938 89.75 286.726562 C 89.4375 287.308594 89.214844 287.835938 89.007812 288.464844 C 88.414062 290.480469 88.371094 292.089844 88.90625 294.125 C 89.527344 296.128906 90.414062 297.472656 91.988281 298.859375 C 92.070312 298.933594 92.136719 299 92.183594 299.101562 C 92.226562 299.203125 92.230469 299.300781 92.226562 299.410156 L 92.160156 300.316406 C 92.082031 301.945312 92.371094 303.175781 93.195312 304.585938 C 94.085938 305.953125 95.054688 306.761719 96.546875 307.417969 C 98.066406 308.007812 99.320312 308.117188 100.914062 307.777344 C 102.492188 307.367188 103.558594 306.703125 104.648438 305.496094 L 106.988281 302.769531 C 107.328125 302.386719 107.621094 302.132812 108.078125 301.902344 C 108.546875 301.6875 108.925781 301.613281 109.441406 301.589844 C 109.464844 301.585938 109.539062 301.589844 109.570312 301.585938 C 110.175781 301.582031 110.628906 301.65625 111.183594 301.914062 C 111.726562 302.195312 112.0625 302.511719 112.429688 303.003906 L 115.519531 307.367188 C 116.710938 308.988281 117.910156 309.964844 119.765625 310.753906 C 121.648438 311.457031 123.183594 311.578125 125.15625 311.226562 L 129.714844 310.296875 C 130.246094 310.191406 130.65625 310.167969 131.191406 310.265625 C 131.726562 310.382812 132.097656 310.5625 132.550781 310.871094 C 133 311.195312 133.300781 311.488281 133.597656 311.953125 C 133.882812 312.4375 134.007812 312.839844 134.09375 313.390625 L 134.652344 317.703125 C 134.839844 319.054688 135.160156 320.046875 135.835938 321.234375 C 136.546875 322.394531 137.253906 323.148438 138.339844 323.964844 C 141.03125 325.910156 143.722656 327.847656 146.417969 329.785156 C 147.667969 330.660156 148.730469 331.125 150.238281 331.394531 C 151.738281 331.609375 152.886719 331.503906 154.335938 331.0625 C 155.761719 330.582031 156.75 330.007812 157.839844 328.96875 C 158.882812 327.898438 159.46875 326.925781 159.960938 325.519531 L 162.070312 319.042969 C 162.402344 318.058594 162.773438 317.507812 163.574219 316.839844 C 165.59375 315.25 167.613281 313.65625 169.628906 312.0625 C 170.65625 311.234375 171.304688 310.46875 171.914062 309.292969 C 172.476562 308.109375 172.691406 307.144531 172.730469 305.835938 C 172.730469 304.671875 172.582031 303.796875 172.15625 302.710938 C 171.703125 301.65625 171.210938 300.945312 170.402344 300.132812 C 169.9375 299.675781 169.691406 299.238281 169.570312 298.597656 C 169.476562 297.925781 169.578125 297.414062 169.890625 296.816406 C 172.945312 291.414062 175.964844 286.003906 178.929688 280.554688 C 179.398438 279.738281 179.648438 278.796875 179.710938 277.859375 C 179.503906 278.878906 179.226562 279.519531 178.640625 280.375 C 175.066406 285.445312 171.554688 290.550781 168.0625 295.679688 C 167.410156 296.714844 167.164062 297.625 167.226562 298.847656 C 167.351562 300.089844 167.746094 300.96875 168.566406 301.90625 C 169.050781 302.476562 169.34375 302.964844 169.582031 303.675781 C 169.804688 304.394531 169.851562 304.964844 169.800781 305.714844 C 169.71875 306.527344 169.554688 307.117188 169.152344 307.828125 C 168.730469 308.511719 168.304688 308.9375 167.652344 309.398438 C 165.539062 310.863281 163.429688 312.332031 161.324219 313.804688 C 159.816406 314.917969 159.003906 315.972656 158.308594 317.714844 L 155.875 324.070312 C 155.59375 324.757812 155.292969 325.226562 154.746094 325.726562 C 154.191406 326.199219 153.699219 326.441406 153 326.640625 C 152.304688 326.816406 151.765625 326.851562 151.0625 326.714844 C 150.375 326.554688 149.902344 326.308594 149.34375 325.878906 C 146.726562 323.835938 144.109375 321.800781 141.488281 319.761719 C 141.042969 319.402344 140.746094 319.078125 140.46875 318.574219 C 140.210938 318.070312 140.105469 317.652344 140.046875 317.085938 L 139.617188 312.761719 C 139.453125 311.371094 139.148438 310.355469 138.476562 309.125 C 137.765625 307.914062 137.042969 307.125 135.933594 306.269531 C 134.796875 305.441406 133.832031 304.972656 132.464844 304.628906 C 131.082031 304.324219 130.003906 304.316406 128.613281 304.550781 L 124.035156 305.375 C 123.296875 305.488281 122.734375 305.445312 122.042969 305.164062 C 121.371094 304.855469 120.957031 304.484375 120.535156 303.878906 L 117.519531 299.464844 C 116.519531 298.058594 115.546875 297.171875 114.027344 296.351562 C 112.472656 295.582031 111.1875 295.300781 109.457031 295.292969 C 109.4375 295.289062 109.355469 295.296875 109.328125 295.296875 Z M 109.328125 295.296875 " fill-opacity="1" fill-rule="evenodd"></path>
  </g>
  <path fill="#f71656" d="M 100.28125 243.925781 C 100.050781 242.261719 99.800781 240.613281 99.515625 238.953125 C 99.378906 238.164062 99.371094 237.558594 99.535156 236.773438 C 99.734375 235.949219 100.015625 235.382812 100.515625 234.703125 C 101.972656 232.824219 103.34375 230.960938 104.53125 228.902344 C 102.496094 230.125 100.652344 231.535156 98.804688 233.023438 C 97.84375 233.863281 97.257812 234.632812 96.734375 235.804688 C 96.238281 237.023438 96.097656 238.011719 96.160156 239.328125 C 96.261719 241.273438 96.398438 243.199219 96.574219 245.136719 C 96.632812 245.640625 96.75 246.011719 97.003906 246.453125 C 97.269531 246.886719 97.539062 247.167969 97.953125 247.460938 C 98.378906 247.746094 98.738281 247.894531 99.242188 247.988281 C 99.75 248.066406 100.136719 248.042969 100.632812 247.917969 L 100.691406 247.902344 C 101.125 247.78125 101.507812 247.648438 101.921875 247.472656 C 102.644531 247.148438 103.191406 246.8125 103.804688 246.316406 C 104.78125 245.480469 105.363281 244.707031 105.941406 243.566406 C 106.4375 242.503906 106.675781 241.644531 106.757812 240.472656 C 106.765625 240.179688 106.808594 239.953125 106.910156 239.675781 C 107.019531 239.402344 107.140625 239.207031 107.335938 238.980469 C 107.542969 238.753906 107.730469 238.605469 108 238.453125 C 108.296875 238.296875 108.542969 238.21875 108.875 238.171875 C 109.261719 238.152344 109.550781 238.085938 109.902344 237.929688 C 110.230469 237.773438 110.460938 237.609375 110.714844 237.347656 C 110.957031 237.085938 111.105469 236.851562 111.242188 236.523438 C 111.371094 236.179688 111.417969 235.90625 111.417969 235.542969 C 111.363281 235.023438 111.40625 234.628906 111.582031 234.132812 C 111.792969 233.597656 112.050781 233.242188 112.476562 232.859375 C 112.8125 232.605469 113.015625 232.339844 113.152344 231.9375 C 113.265625 231.5625 113.261719 231.257812 113.148438 230.882812 C 113.027344 230.546875 112.871094 230.316406 112.578125 230.105469 C 112.308594 229.933594 112.070312 229.863281 111.75 229.875 C 112 230 112.15625 230.140625 112.292969 230.382812 C 112.402344 230.59375 112.433594 230.765625 112.414062 231 C 112.390625 231.195312 112.332031 231.339844 112.199219 231.484375 C 112.082031 231.601562 111.972656 231.660156 111.808594 231.699219 C 111.003906 232.039062 110.464844 232.445312 109.917969 233.132812 C 109.371094 233.878906 109.117188 234.542969 108.992188 235.457031 C 108.972656 235.46875 108.953125 235.472656 108.933594 235.464844 C 108.921875 235.464844 108.898438 235.449219 108.890625 235.4375 C 108.875 235.425781 108.878906 235.40625 108.875 235.390625 C 108.875 235.371094 108.902344 235.347656 108.902344 235.339844 C 108.167969 235.292969 107.597656 235.359375 106.890625 235.578125 C 106.199219 235.8125 105.703125 236.085938 105.132812 236.542969 C 104.5625 237.023438 104.195312 237.464844 103.824219 238.113281 C 103.453125 238.800781 103.269531 239.375 103.164062 240.152344 C 103.058594 240.796875 102.878906 241.269531 102.570312 241.84375 C 102.222656 242.449219 101.894531 242.859375 101.351562 243.300781 C 101.222656 243.453125 100.558594 243.804688 100.355469 243.894531 C 100.332031 243.90625 100.304688 243.914062 100.28125 243.925781 Z M 100.28125 243.925781 " fill-opacity="1" fill-rule="evenodd"></path>
  <g clip-path="url(#5ec5c6c3da)">
    <path fill="#0652e9" d="M 169.746094 194.976562 L 169.746094 202.824219 L 134.203125 186.3125 L 134.203125 179.941406 L 169.746094 163.429688 L 169.746094 171.28125 L 142.867188 183.050781 L 142.867188 183.199219 Z M 190.855469 154.707031 L 131.414062 154.707031 C 128.609375 154.707031 126.335938 156.984375 126.335938 159.789062 L 126.335938 206.464844 C 126.335938 209.269531 128.609375 211.542969 131.414062 211.542969 L 174.355469 211.542969 L 190.855469 154.707031 " fill-opacity="1" fill-rule="nonzero"></path>
  </g>
  <g clip-path="url(#ba77115eb2)">
    <path fill="#f71656" d="M 247.410156 156.726562 L 211.867188 173.019531 L 211.867188 165.167969 L 239.339844 153.394531 L 239.339844 153.246094 L 211.867188 141.472656 L 211.867188 133.625 L 247.410156 149.914062 Z M 207.355469 124.902344 L 190.855469 181.738281 L 250.199219 181.738281 C 253.003906 181.738281 255.28125 179.464844 255.28125 176.65625 L 255.28125 129.984375 C 255.28125 127.179688 253.003906 124.902344 250.199219 124.902344 L 207.355469 124.902344 " fill-opacity="1" fill-rule="nonzero"></path>
  </g>
</svg>
